<?xml version="1.0" encoding="UTF-8" standalone="no"?>
<svg xmlns="http://www.w3.org/2000/svg" width="512" height="512" viewBox="0 0 512 512">
  <rect width="512" height="512" fill="none" />
  <g>
    <path d="M256,128c-17.7,0-32,14.3-32,32s14.3,32,32,32s32-14.3,32-32S273.7,128,256,128z" fill="white"/>
    <path d="M368,224h-32v-16c0-44.1-35.9-80-80-80s-80,35.9-80,80v16h-32c-8.8,0-16,7.2-16,16v160c0,8.8,7.2,16,16,16h224
      c8.8,0,16-7.2,16-16V240C384,231.2,376.8,224,368,224z M208,208c0-26.5,21.5-48,48-48s48,21.5,48,48v16H208V208z" fill="white"/>
  </g>
</svg>