<?xml version="1.0" encoding="UTF-8" standalone="no"?>
<svg width="64" height="64" viewBox="0 0 64 64" fill="none" xmlns="http://www.w3.org/2000/svg">
  <rect width="64" height="64" fill="#4A58C0"/>
  <g transform="translate(16, 16) scale(0.5)">
    <path d="M32 8C27.6 8 24 11.6 24 16C24 20.4 27.6 24 32 24C36.4 24 40 20.4 40 16C40 11.6 36.4 8 32 8Z" fill="white"/>
    <path d="M32 28C23.2 28 16 35.2 16 44V56H48V44C48 35.2 40.8 28 32 28ZM26 48H22V36H26V48ZM36 48H32V36H36V48ZM40 32H24V28H40V32Z" fill="white"/>
  </g>
</svg>