<?xml version="1.0" encoding="UTF-8" standalone="no"?>
<svg width="1024" height="1024" viewBox="0 0 1024 1024" fill="none" xmlns="http://www.w3.org/2000/svg">
  <rect width="1024" height="1024" fill="#4A58C0"/>
  <g transform="translate(256, 256) scale(0.5)">
    <path d="M512 128C445.3 128 391.8 181.5 391.8 248.2C391.8 314.9 445.3 368.4 512 368.4C578.7 368.4 632.2 314.9 632.2 248.2C632.2 181.5 578.7 128 512 128Z" fill="white"/>
    <path d="M512 405.9C379.8 405.9 272.7 513 272.7 645.2V895.5H751.3V645.2C751.3 513 644.2 405.9 512 405.9ZM462.2 746.5H416.5V608.9H462.2V746.5ZM560.9 746.5H515.1V608.9H560.9V746.5ZM608.4 563.1H369.1V517.4H608.4V563.1Z" fill="white"/>
  </g>
</svg>