<?xml version="1.0" encoding="UTF-8" standalone="no"?>
<svg width="1242" height="2436" viewBox="0 0 1242 2436" fill="none" xmlns="http://www.w3.org/2000/svg">
  <rect width="1242" height="2436" fill="#4A58C0"/>
  <g transform="translate(321, 968)">
    <path d="M300 100C233.3 100 179.8 153.5 179.8 220.2C179.8 286.9 233.3 340.4 300 340.4C366.7 340.4 420.2 286.9 420.2 220.2C420.2 153.5 366.7 100 300 100Z" fill="white"/>
    <path d="M300 377.9C167.8 377.9 60.7 485 60.7 617.2V867.5H539.3V617.2C539.3 485 432.2 377.9 300 377.9ZM250.2 718.5H204.5V580.9H250.2V718.5ZM348.9 718.5H303.1V580.9H348.9V718.5ZM396.4 535.1H157.1V489.4H396.4V535.1Z" fill="white"/>
  </g>
  <text x="621" y="1500" text-anchor="middle" font-family="Arial, sans-serif" font-size="100" font-weight="bold" fill="white">FitSAGA</text>
  <text x="621" y="1580" text-anchor="middle" font-family="Arial, sans-serif" font-size="40" fill="white">Gym Management App</text>
</svg>